<mxfile host="app.diagrams.net" modified="2024-07-13T05:22:28.329Z" agent="Mozilla/5.0 (Macintosh; Intel Mac OS X 10_15_7) AppleWebKit/537.36 (KHTML, like Gecko) Chrome/116.0.0.0 Safari/537.36" version="24.6.5" etag="LZI5dkiaHWs7IfuRt2Qf" type="github">
  <diagram name="Page-1" id="bC13eqXGoI-rvWT93ObH">
    <mxGraphModel>
      <root>
        <mxCell id="0" />
        <mxCell id="1" parent="0" />
      </root>
    </mxGraphModel>
  </diagram>
</mxfile>
